<mxfile host="Electron" agent="Mozilla/5.0 (Windows NT 10.0; Win64; x64) AppleWebKit/537.36 (KHTML, like Gecko) draw.io/26.0.16 Chrome/132.0.6834.196 Electron/34.2.0 Safari/537.36" version="26.0.16">
  <diagram name="Page-1" id="WqpeDY9jaydvTUx-uUJb">
    <mxGraphModel dx="4813" dy="3037" grid="1" gridSize="10" guides="1" tooltips="1" connect="1" arrows="1" fold="1" page="1" pageScale="1" pageWidth="1100" pageHeight="850" math="0" shadow="0">
      <root>
        <mxCell id="0" />
        <mxCell id="1" parent="0" />
        <mxCell id="85Ydq0UuJS8T2cN9ZGe2-1" value="Game Structure" style="shape=umlFrame;whiteSpace=wrap;html=1;pointerEvents=0;width=110;height=30;" parent="1" vertex="1">
          <mxGeometry x="-200" y="-70" width="1530" height="1920" as="geometry" />
        </mxCell>
        <mxCell id="85Ydq0UuJS8T2cN9ZGe2-2" value="" style="edgeStyle=orthogonalEdgeStyle;rounded=0;orthogonalLoop=1;jettySize=auto;html=1;endArrow=none;startFill=0;dashed=1;" parent="1" source="85Ydq0UuJS8T2cN9ZGe2-3" target="85Ydq0UuJS8T2cN9ZGe2-7" edge="1">
          <mxGeometry relative="1" as="geometry">
            <mxPoint x="410" y="-265" as="sourcePoint" />
          </mxGeometry>
        </mxCell>
        <mxCell id="85Ydq0UuJS8T2cN9ZGe2-3" value="CheckersController" style="html=1;whiteSpace=wrap;" parent="1" vertex="1">
          <mxGeometry x="355" y="-10" width="110" height="30" as="geometry" />
        </mxCell>
        <mxCell id="85Ydq0UuJS8T2cN9ZGe2-4" style="edgeStyle=orthogonalEdgeStyle;rounded=0;orthogonalLoop=1;jettySize=auto;html=1;exitX=1;exitY=0;exitDx=0;exitDy=0;entryX=1;entryY=0;entryDx=0;entryDy=0;" parent="1" source="85Ydq0UuJS8T2cN9ZGe2-7" target="85Ydq0UuJS8T2cN9ZGe2-9" edge="1">
          <mxGeometry relative="1" as="geometry">
            <mxPoint x="420" y="100" as="targetPoint" />
            <Array as="points">
              <mxPoint x="450" y="80" />
              <mxPoint x="450" y="100" />
            </Array>
          </mxGeometry>
        </mxCell>
        <mxCell id="85Ydq0UuJS8T2cN9ZGe2-5" value="StartTurn()" style="edgeLabel;html=1;align=center;verticalAlign=middle;resizable=0;points=[];" parent="85Ydq0UuJS8T2cN9ZGe2-4" connectable="0" vertex="1">
          <mxGeometry x="-0.596" y="-1" relative="1" as="geometry">
            <mxPoint x="39" y="-4" as="offset" />
          </mxGeometry>
        </mxCell>
        <mxCell id="85Ydq0UuJS8T2cN9ZGe2-6" value="" style="edgeStyle=orthogonalEdgeStyle;rounded=0;orthogonalLoop=1;jettySize=auto;html=1;dashed=1;endArrow=none;startFill=0;" parent="1" source="85Ydq0UuJS8T2cN9ZGe2-7" target="85Ydq0UuJS8T2cN9ZGe2-36" edge="1">
          <mxGeometry relative="1" as="geometry">
            <mxPoint x="410" y="510" as="targetPoint" />
            <Array as="points">
              <mxPoint x="410" y="570" />
              <mxPoint x="410" y="570" />
            </Array>
            <mxPoint x="410" y="490" as="sourcePoint" />
          </mxGeometry>
        </mxCell>
        <mxCell id="85Ydq0UuJS8T2cN9ZGe2-7" value="" style="rounded=0;whiteSpace=wrap;html=1;" parent="1" vertex="1">
          <mxGeometry x="400" y="80" width="20" height="410" as="geometry" />
        </mxCell>
        <mxCell id="85Ydq0UuJS8T2cN9ZGe2-8" style="edgeStyle=orthogonalEdgeStyle;rounded=0;orthogonalLoop=1;jettySize=auto;html=1;exitX=1;exitY=1;exitDx=0;exitDy=0;dashed=1;" parent="1" edge="1">
          <mxGeometry relative="1" as="geometry">
            <mxPoint x="430" y="450" as="sourcePoint" />
            <mxPoint x="420" y="469.97" as="targetPoint" />
            <Array as="points">
              <mxPoint x="450" y="450" />
              <mxPoint x="450" y="470" />
            </Array>
          </mxGeometry>
        </mxCell>
        <mxCell id="85Ydq0UuJS8T2cN9ZGe2-9" value="" style="rounded=0;whiteSpace=wrap;html=1;" parent="1" vertex="1">
          <mxGeometry x="410" y="100" width="20" height="350" as="geometry" />
        </mxCell>
        <mxCell id="85Ydq0UuJS8T2cN9ZGe2-10" value="" style="rounded=0;whiteSpace=wrap;html=1;" parent="1" vertex="1">
          <mxGeometry x="420" y="140" width="20" height="270" as="geometry" />
        </mxCell>
        <mxCell id="85Ydq0UuJS8T2cN9ZGe2-11" style="edgeStyle=orthogonalEdgeStyle;rounded=0;orthogonalLoop=1;jettySize=auto;html=1;exitX=1;exitY=0;exitDx=0;exitDy=0;entryX=1;entryY=0;entryDx=0;entryDy=0;" parent="1" edge="1">
          <mxGeometry relative="1" as="geometry">
            <mxPoint x="430" y="119.98" as="sourcePoint" />
            <mxPoint x="440" y="139.98" as="targetPoint" />
            <Array as="points">
              <mxPoint x="460" y="119.98" />
              <mxPoint x="460" y="139.98" />
            </Array>
          </mxGeometry>
        </mxCell>
        <mxCell id="85Ydq0UuJS8T2cN9ZGe2-12" value="UpdateValidMoved()" style="edgeLabel;html=1;align=center;verticalAlign=middle;resizable=0;points=[];" parent="85Ydq0UuJS8T2cN9ZGe2-11" connectable="0" vertex="1">
          <mxGeometry x="-0.596" y="-1" relative="1" as="geometry">
            <mxPoint x="56" y="-4" as="offset" />
          </mxGeometry>
        </mxCell>
        <mxCell id="85Ydq0UuJS8T2cN9ZGe2-13" value="CheckersBoard" style="html=1;whiteSpace=wrap;" parent="1" vertex="1">
          <mxGeometry x="670" y="-10" width="100" height="30" as="geometry" />
        </mxCell>
        <mxCell id="85Ydq0UuJS8T2cN9ZGe2-14" value="" style="edgeStyle=orthogonalEdgeStyle;rounded=0;orthogonalLoop=1;jettySize=auto;html=1;endArrow=none;startFill=0;dashed=1;" parent="1" source="85Ydq0UuJS8T2cN9ZGe2-13" target="85Ydq0UuJS8T2cN9ZGe2-16" edge="1">
          <mxGeometry relative="1" as="geometry">
            <mxPoint x="720.0000000000005" y="-180" as="sourcePoint" />
            <mxPoint x="460" y="90" as="targetPoint" />
            <Array as="points" />
          </mxGeometry>
        </mxCell>
        <mxCell id="85Ydq0UuJS8T2cN9ZGe2-15" value="" style="edgeStyle=orthogonalEdgeStyle;rounded=0;orthogonalLoop=1;jettySize=auto;html=1;endArrow=none;startFill=0;dashed=1;" parent="1" source="85Ydq0UuJS8T2cN9ZGe2-16" target="85Ydq0UuJS8T2cN9ZGe2-29" edge="1">
          <mxGeometry relative="1" as="geometry" />
        </mxCell>
        <mxCell id="85Ydq0UuJS8T2cN9ZGe2-16" value="" style="rounded=0;whiteSpace=wrap;html=1;" parent="1" vertex="1">
          <mxGeometry x="710" y="160" width="20" height="30" as="geometry" />
        </mxCell>
        <mxCell id="85Ydq0UuJS8T2cN9ZGe2-17" value="" style="endArrow=classic;html=1;rounded=0;entryX=0;entryY=0;entryDx=0;entryDy=0;" parent="1" target="85Ydq0UuJS8T2cN9ZGe2-16" edge="1">
          <mxGeometry width="50" height="50" relative="1" as="geometry">
            <mxPoint x="440" y="160" as="sourcePoint" />
            <mxPoint x="710" y="180" as="targetPoint" />
          </mxGeometry>
        </mxCell>
        <mxCell id="85Ydq0UuJS8T2cN9ZGe2-18" value="GetP1() / GetP2()" style="edgeLabel;html=1;align=center;verticalAlign=middle;resizable=0;points=[];" parent="85Ydq0UuJS8T2cN9ZGe2-17" connectable="0" vertex="1">
          <mxGeometry x="-0.487" y="-1" relative="1" as="geometry">
            <mxPoint x="41" y="-1" as="offset" />
          </mxGeometry>
        </mxCell>
        <mxCell id="85Ydq0UuJS8T2cN9ZGe2-19" value="" style="endArrow=classic;html=1;rounded=0;exitX=0;exitY=1;exitDx=0;exitDy=0;dashed=1;" parent="1" source="85Ydq0UuJS8T2cN9ZGe2-16" edge="1">
          <mxGeometry width="50" height="50" relative="1" as="geometry">
            <mxPoint x="670" y="200" as="sourcePoint" />
            <mxPoint x="440" y="190" as="targetPoint" />
          </mxGeometry>
        </mxCell>
        <mxCell id="85Ydq0UuJS8T2cN9ZGe2-20" value="Pieces: Set&amp;lt;(int, int)&amp;gt;" style="edgeLabel;html=1;align=center;verticalAlign=middle;resizable=0;points=[];" parent="85Ydq0UuJS8T2cN9ZGe2-19" connectable="0" vertex="1">
          <mxGeometry x="-0.487" y="-1" relative="1" as="geometry">
            <mxPoint x="-61" y="1" as="offset" />
          </mxGeometry>
        </mxCell>
        <mxCell id="85Ydq0UuJS8T2cN9ZGe2-21" value="foreach" style="shape=umlFrame;whiteSpace=wrap;html=1;pointerEvents=0;" parent="1" vertex="1">
          <mxGeometry x="270" y="210" width="480" height="130" as="geometry" />
        </mxCell>
        <mxCell id="85Ydq0UuJS8T2cN9ZGe2-22" value="(int, int) in Pieces" style="text;html=1;align=center;verticalAlign=middle;whiteSpace=wrap;rounded=0;" parent="1" vertex="1">
          <mxGeometry x="270" y="245" width="110" height="30" as="geometry" />
        </mxCell>
        <mxCell id="85Ydq0UuJS8T2cN9ZGe2-23" value="" style="rounded=0;whiteSpace=wrap;html=1;" parent="1" vertex="1">
          <mxGeometry x="430" y="250.01" width="20" height="59.99" as="geometry" />
        </mxCell>
        <mxCell id="85Ydq0UuJS8T2cN9ZGe2-24" style="edgeStyle=orthogonalEdgeStyle;rounded=0;orthogonalLoop=1;jettySize=auto;html=1;exitX=1;exitY=0;exitDx=0;exitDy=0;entryX=1;entryY=0;entryDx=0;entryDy=0;" parent="1" edge="1">
          <mxGeometry relative="1" as="geometry">
            <mxPoint x="440" y="229.99" as="sourcePoint" />
            <mxPoint x="450" y="249.98999999999998" as="targetPoint" />
            <Array as="points">
              <mxPoint x="470" y="229.99" />
              <mxPoint x="470" y="249.98999999999998" />
            </Array>
          </mxGeometry>
        </mxCell>
        <mxCell id="85Ydq0UuJS8T2cN9ZGe2-25" value="AddPieceMoves(int, int)" style="edgeLabel;html=1;align=center;verticalAlign=middle;resizable=0;points=[];" parent="85Ydq0UuJS8T2cN9ZGe2-24" connectable="0" vertex="1">
          <mxGeometry x="-0.596" y="-1" relative="1" as="geometry">
            <mxPoint x="66" y="-1" as="offset" />
          </mxGeometry>
        </mxCell>
        <mxCell id="85Ydq0UuJS8T2cN9ZGe2-26" style="edgeStyle=orthogonalEdgeStyle;rounded=0;orthogonalLoop=1;jettySize=auto;html=1;exitX=1;exitY=1;exitDx=0;exitDy=0;dashed=1;" parent="1" edge="1">
          <mxGeometry relative="1" as="geometry">
            <mxPoint x="450" y="310" as="sourcePoint" />
            <mxPoint x="440" y="329.97" as="targetPoint" />
            <Array as="points">
              <mxPoint x="470" y="310" />
              <mxPoint x="470" y="330" />
            </Array>
          </mxGeometry>
        </mxCell>
        <mxCell id="85Ydq0UuJS8T2cN9ZGe2-28" style="edgeStyle=orthogonalEdgeStyle;rounded=0;orthogonalLoop=1;jettySize=auto;html=1;endArrow=none;startFill=0;dashed=1;" parent="1" source="85Ydq0UuJS8T2cN9ZGe2-29" target="IO_v7ghYdT4e0xg05BSk-1" edge="1">
          <mxGeometry relative="1" as="geometry">
            <Array as="points" />
            <mxPoint x="719.9803921568628" y="670" as="targetPoint" />
          </mxGeometry>
        </mxCell>
        <mxCell id="85Ydq0UuJS8T2cN9ZGe2-29" value="" style="rounded=0;whiteSpace=wrap;html=1;" parent="1" vertex="1">
          <mxGeometry x="710" y="260" width="20" height="30" as="geometry" />
        </mxCell>
        <mxCell id="85Ydq0UuJS8T2cN9ZGe2-30" value="" style="endArrow=classic;html=1;rounded=0;entryX=0;entryY=0;entryDx=0;entryDy=0;" parent="1" edge="1" target="85Ydq0UuJS8T2cN9ZGe2-29">
          <mxGeometry width="50" height="50" relative="1" as="geometry">
            <mxPoint x="450" y="260" as="sourcePoint" />
            <mxPoint x="670" y="260" as="targetPoint" />
          </mxGeometry>
        </mxCell>
        <mxCell id="85Ydq0UuJS8T2cN9ZGe2-31" value="GetPiece(int, int)" style="edgeLabel;html=1;align=center;verticalAlign=middle;resizable=0;points=[];" parent="85Ydq0UuJS8T2cN9ZGe2-30" connectable="0" vertex="1">
          <mxGeometry x="-0.487" y="-1" relative="1" as="geometry">
            <mxPoint x="41" y="-1" as="offset" />
          </mxGeometry>
        </mxCell>
        <mxCell id="85Ydq0UuJS8T2cN9ZGe2-32" value="" style="endArrow=classic;html=1;rounded=0;dashed=1;exitX=0;exitY=1;exitDx=0;exitDy=0;" parent="1" edge="1" source="85Ydq0UuJS8T2cN9ZGe2-29">
          <mxGeometry width="50" height="50" relative="1" as="geometry">
            <mxPoint x="670" y="290" as="sourcePoint" />
            <mxPoint x="450" y="290" as="targetPoint" />
          </mxGeometry>
        </mxCell>
        <mxCell id="85Ydq0UuJS8T2cN9ZGe2-33" value="CheckersPiece" style="edgeLabel;html=1;align=center;verticalAlign=middle;resizable=0;points=[];" parent="85Ydq0UuJS8T2cN9ZGe2-32" connectable="0" vertex="1">
          <mxGeometry x="-0.487" y="-1" relative="1" as="geometry">
            <mxPoint x="-53" y="1" as="offset" />
          </mxGeometry>
        </mxCell>
        <mxCell id="85Ydq0UuJS8T2cN9ZGe2-34" style="edgeStyle=orthogonalEdgeStyle;rounded=0;orthogonalLoop=1;jettySize=auto;html=1;exitX=1;exitY=1;exitDx=0;exitDy=0;dashed=1;" parent="1" edge="1">
          <mxGeometry relative="1" as="geometry">
            <mxPoint x="440" y="410" as="sourcePoint" />
            <mxPoint x="430" y="429.97" as="targetPoint" />
            <Array as="points">
              <mxPoint x="460" y="410" />
              <mxPoint x="460" y="430" />
            </Array>
          </mxGeometry>
        </mxCell>
        <mxCell id="85Ydq0UuJS8T2cN9ZGe2-35" value="Loop" style="shape=umlFrame;whiteSpace=wrap;html=1;pointerEvents=0;strokeWidth=3;" parent="1" vertex="1">
          <mxGeometry x="-340" y="60" width="1750" height="1750" as="geometry" />
        </mxCell>
        <mxCell id="85Ydq0UuJS8T2cN9ZGe2-36" value="" style="html=1;points=[[0,0,0,0,5],[0,1,0,0,-5],[1,0,0,0,5],[1,1,0,0,-5]];perimeter=orthogonalPerimeter;outlineConnect=0;targetShapes=umlLifeline;portConstraint=eastwest;newEdgeStyle={&quot;curved&quot;:0,&quot;rounded&quot;:0};" parent="1" vertex="1">
          <mxGeometry x="400" y="560" width="20" height="180" as="geometry" />
        </mxCell>
        <mxCell id="85Ydq0UuJS8T2cN9ZGe2-37" value="" style="endArrow=classic;html=1;rounded=0;entryX=-0.007;entryY=0;entryDx=0;entryDy=0;entryPerimeter=0;" parent="1" target="85Ydq0UuJS8T2cN9ZGe2-36" edge="1">
          <mxGeometry width="50" height="50" relative="1" as="geometry">
            <mxPoint x="200" y="560" as="sourcePoint" />
            <mxPoint x="510" y="550" as="targetPoint" />
          </mxGeometry>
        </mxCell>
        <mxCell id="85Ydq0UuJS8T2cN9ZGe2-38" value="ReceiveInput(int, int)" style="edgeLabel;html=1;align=center;verticalAlign=middle;resizable=0;points=[];" parent="85Ydq0UuJS8T2cN9ZGe2-37" connectable="0" vertex="1">
          <mxGeometry x="-0.2295" y="-3" relative="1" as="geometry">
            <mxPoint x="8" y="-3" as="offset" />
          </mxGeometry>
        </mxCell>
        <mxCell id="85Ydq0UuJS8T2cN9ZGe2-39" value="Loop" style="shape=umlFrame;whiteSpace=wrap;html=1;pointerEvents=0;" parent="1" vertex="1">
          <mxGeometry x="10" y="520" width="970" height="270" as="geometry" />
        </mxCell>
        <mxCell id="85Ydq0UuJS8T2cN9ZGe2-40" value="Winner == ONGOING" style="text;html=1;align=center;verticalAlign=middle;whiteSpace=wrap;rounded=0;" parent="1" vertex="1">
          <mxGeometry x="-340" y="90" width="130" height="30" as="geometry" />
        </mxCell>
        <mxCell id="85Ydq0UuJS8T2cN9ZGe2-41" value="" style="endArrow=classic;html=1;rounded=0;entryX=-0.007;entryY=0;entryDx=0;entryDy=0;entryPerimeter=0;dashed=1;" parent="1" edge="1">
          <mxGeometry width="50" height="50" relative="1" as="geometry">
            <mxPoint x="400" y="740" as="sourcePoint" />
            <mxPoint x="200" y="740" as="targetPoint" />
          </mxGeometry>
        </mxCell>
        <mxCell id="85Ydq0UuJS8T2cN9ZGe2-42" value="Break" style="shape=umlFrame;whiteSpace=wrap;html=1;pointerEvents=0;width=50;height=30;" parent="1" vertex="1">
          <mxGeometry x="50" y="700" width="390" height="70" as="geometry" />
        </mxCell>
        <mxCell id="85Ydq0UuJS8T2cN9ZGe2-43" value="Previous Input Does Not Specify a Move" style="text;html=1;align=center;verticalAlign=middle;whiteSpace=wrap;rounded=0;" parent="1" vertex="1">
          <mxGeometry x="10" y="550" width="150" height="40" as="geometry" />
        </mxCell>
        <mxCell id="85Ydq0UuJS8T2cN9ZGe2-44" value="" style="edgeStyle=orthogonalEdgeStyle;rounded=0;orthogonalLoop=1;jettySize=auto;html=1;dashed=1;endArrow=none;startFill=0;" parent="1" source="85Ydq0UuJS8T2cN9ZGe2-36" target="85Ydq0UuJS8T2cN9ZGe2-45" edge="1">
          <mxGeometry relative="1" as="geometry">
            <mxPoint x="410" y="770" as="targetPoint" />
            <Array as="points">
              <mxPoint x="410" y="810" />
              <mxPoint x="410" y="810" />
            </Array>
            <mxPoint x="410" y="740" as="sourcePoint" />
          </mxGeometry>
        </mxCell>
        <mxCell id="85Ydq0UuJS8T2cN9ZGe2-45" value="" style="html=1;points=[[0,0,0,0,5],[0,1,0,0,-5],[1,0,0,0,5],[1,1,0,0,-5]];perimeter=orthogonalPerimeter;outlineConnect=0;targetShapes=umlLifeline;portConstraint=eastwest;newEdgeStyle={&quot;curved&quot;:0,&quot;rounded&quot;:0};" parent="1" vertex="1">
          <mxGeometry x="400" y="780" width="20" height="210" as="geometry" />
        </mxCell>
        <mxCell id="85Ydq0UuJS8T2cN9ZGe2-46" value="Input Does Not Specify a Move" style="text;html=1;align=center;verticalAlign=middle;whiteSpace=wrap;rounded=0;" parent="1" vertex="1">
          <mxGeometry x="50" y="730" width="120" height="40" as="geometry" />
        </mxCell>
        <mxCell id="85Ydq0UuJS8T2cN9ZGe2-48" value="" style="endArrow=classic;html=1;rounded=0;exitX=1.019;exitY=0.186;exitDx=0;exitDy=0;exitPerimeter=0;entryX=0;entryY=0;entryDx=0;entryDy=0;" parent="1" edge="1" target="IO_v7ghYdT4e0xg05BSk-1">
          <mxGeometry width="50" height="50" relative="1" as="geometry">
            <mxPoint x="420" y="830" as="sourcePoint" />
            <mxPoint x="710" y="830" as="targetPoint" />
          </mxGeometry>
        </mxCell>
        <mxCell id="85Ydq0UuJS8T2cN9ZGe2-49" value="MakeMove(Move)" style="edgeLabel;html=1;align=center;verticalAlign=middle;resizable=0;points=[];" parent="85Ydq0UuJS8T2cN9ZGe2-48" connectable="0" vertex="1">
          <mxGeometry x="-0.1973" y="-1" relative="1" as="geometry">
            <mxPoint x="30" y="-1" as="offset" />
          </mxGeometry>
        </mxCell>
        <mxCell id="85Ydq0UuJS8T2cN9ZGe2-50" value="" style="endArrow=classic;html=1;rounded=0;exitX=0;exitY=1;exitDx=0;exitDy=0;dashed=1;" parent="1" edge="1" source="IO_v7ghYdT4e0xg05BSk-1">
          <mxGeometry width="50" height="50" relative="1" as="geometry">
            <mxPoint x="670" y="870" as="sourcePoint" />
            <mxPoint x="420" y="870" as="targetPoint" />
          </mxGeometry>
        </mxCell>
        <mxCell id="85Ydq0UuJS8T2cN9ZGe2-51" value="Alt" style="shape=umlFrame;whiteSpace=wrap;html=1;pointerEvents=0;width=50;height=30;" parent="1" vertex="1">
          <mxGeometry x="-160" y="970" width="1130" height="460" as="geometry" />
        </mxCell>
        <mxCell id="85Ydq0UuJS8T2cN9ZGe2-52" value="The Move was a Capture" style="text;html=1;align=center;verticalAlign=middle;whiteSpace=wrap;rounded=0;" parent="1" vertex="1">
          <mxGeometry x="-160" y="1000" width="100" height="40" as="geometry" />
        </mxCell>
        <mxCell id="85Ydq0UuJS8T2cN9ZGe2-53" value="Loop" style="shape=umlFrame;whiteSpace=wrap;html=1;pointerEvents=0;" parent="1" vertex="1">
          <mxGeometry x="-120" y="1040" width="1060" height="360" as="geometry" />
        </mxCell>
        <mxCell id="85Ydq0UuJS8T2cN9ZGe2-54" value="CanCatpure&lt;div&gt;AND&lt;/div&gt;&lt;div&gt;CurrentPiece was not Kinged this Turn&lt;/div&gt;" style="text;html=1;align=center;verticalAlign=middle;whiteSpace=wrap;rounded=0;" parent="1" vertex="1">
          <mxGeometry x="-120" y="1070" width="130" height="70" as="geometry" />
        </mxCell>
        <mxCell id="85Ydq0UuJS8T2cN9ZGe2-55" value="" style="edgeStyle=orthogonalEdgeStyle;rounded=0;orthogonalLoop=1;jettySize=auto;html=1;dashed=1;endArrow=none;startFill=0;" parent="1" target="85Ydq0UuJS8T2cN9ZGe2-56" edge="1">
          <mxGeometry relative="1" as="geometry">
            <mxPoint x="410" y="1040" as="targetPoint" />
            <Array as="points">
              <mxPoint x="410" y="990" />
              <mxPoint x="410" y="990" />
            </Array>
            <mxPoint x="410" y="1000" as="sourcePoint" />
          </mxGeometry>
        </mxCell>
        <mxCell id="85Ydq0UuJS8T2cN9ZGe2-56" value="" style="html=1;points=[[0,0,0,0,5],[0,1,0,0,-5],[1,0,0,0,5],[1,1,0,0,-5]];perimeter=orthogonalPerimeter;outlineConnect=0;targetShapes=umlLifeline;portConstraint=eastwest;newEdgeStyle={&quot;curved&quot;:0,&quot;rounded&quot;:0};" parent="1" vertex="1">
          <mxGeometry x="400" y="1100" width="20" height="80" as="geometry" />
        </mxCell>
        <mxCell id="85Ydq0UuJS8T2cN9ZGe2-57" value="" style="endArrow=classic;html=1;rounded=0;entryX=-0.007;entryY=0;entryDx=0;entryDy=0;entryPerimeter=0;" parent="1" target="85Ydq0UuJS8T2cN9ZGe2-56" edge="1">
          <mxGeometry width="50" height="50" relative="1" as="geometry">
            <mxPoint x="200" y="1100" as="sourcePoint" />
            <mxPoint x="510" y="1090" as="targetPoint" />
          </mxGeometry>
        </mxCell>
        <mxCell id="85Ydq0UuJS8T2cN9ZGe2-58" value="ReceiveInput(int, int)" style="edgeLabel;html=1;align=center;verticalAlign=middle;resizable=0;points=[];" parent="85Ydq0UuJS8T2cN9ZGe2-57" connectable="0" vertex="1">
          <mxGeometry x="-0.2295" y="-3" relative="1" as="geometry">
            <mxPoint x="8" y="-3" as="offset" />
          </mxGeometry>
        </mxCell>
        <mxCell id="85Ydq0UuJS8T2cN9ZGe2-59" value="Loop" style="shape=umlFrame;whiteSpace=wrap;html=1;pointerEvents=0;" parent="1" vertex="1">
          <mxGeometry x="10" y="1060" width="470" height="170" as="geometry" />
        </mxCell>
        <mxCell id="85Ydq0UuJS8T2cN9ZGe2-60" value="" style="endArrow=classic;html=1;rounded=0;entryX=-0.007;entryY=0;entryDx=0;entryDy=0;entryPerimeter=0;dashed=1;" parent="1" edge="1">
          <mxGeometry width="50" height="50" relative="1" as="geometry">
            <mxPoint x="400" y="1180" as="sourcePoint" />
            <mxPoint x="200" y="1180" as="targetPoint" />
          </mxGeometry>
        </mxCell>
        <mxCell id="85Ydq0UuJS8T2cN9ZGe2-61" value="Break" style="shape=umlFrame;whiteSpace=wrap;html=1;pointerEvents=0;width=50;height=30;" parent="1" vertex="1">
          <mxGeometry x="50" y="1140" width="390" height="70" as="geometry" />
        </mxCell>
        <mxCell id="85Ydq0UuJS8T2cN9ZGe2-62" value="Previous Input Does Not Specify a Move" style="text;html=1;align=center;verticalAlign=middle;whiteSpace=wrap;rounded=0;" parent="1" vertex="1">
          <mxGeometry x="10" y="1090" width="150" height="40" as="geometry" />
        </mxCell>
        <mxCell id="85Ydq0UuJS8T2cN9ZGe2-63" value="" style="edgeStyle=orthogonalEdgeStyle;rounded=0;orthogonalLoop=1;jettySize=auto;html=1;dashed=1;endArrow=none;startFill=0;" parent="1" source="85Ydq0UuJS8T2cN9ZGe2-56" target="85Ydq0UuJS8T2cN9ZGe2-65" edge="1">
          <mxGeometry relative="1" as="geometry">
            <mxPoint x="410" y="1210" as="targetPoint" />
            <Array as="points">
              <mxPoint x="410" y="1170" />
              <mxPoint x="410" y="1170" />
            </Array>
            <mxPoint x="410" y="1180" as="sourcePoint" />
          </mxGeometry>
        </mxCell>
        <mxCell id="85Ydq0UuJS8T2cN9ZGe2-64" value="Input Does Not Specify a Move" style="text;html=1;align=center;verticalAlign=middle;whiteSpace=wrap;rounded=0;" parent="1" vertex="1">
          <mxGeometry x="50" y="1170" width="120" height="40" as="geometry" />
        </mxCell>
        <mxCell id="85Ydq0UuJS8T2cN9ZGe2-65" value="" style="html=1;points=[[0,0,0,0,5],[0,1,0,0,-5],[1,0,0,0,5],[1,1,0,0,-5]];perimeter=orthogonalPerimeter;outlineConnect=0;targetShapes=umlLifeline;portConstraint=eastwest;newEdgeStyle={&quot;curved&quot;:0,&quot;rounded&quot;:0};" parent="1" vertex="1">
          <mxGeometry x="400" y="1220" width="20" height="570" as="geometry" />
        </mxCell>
        <mxCell id="85Ydq0UuJS8T2cN9ZGe2-67" value="" style="endArrow=classic;html=1;rounded=0;exitX=1.019;exitY=0.186;exitDx=0;exitDy=0;exitPerimeter=0;entryX=0;entryY=0;entryDx=0;entryDy=0;" parent="1" edge="1" target="IO_v7ghYdT4e0xg05BSk-2">
          <mxGeometry width="50" height="50" relative="1" as="geometry">
            <mxPoint x="420" y="1255" as="sourcePoint" />
            <mxPoint x="670" y="1255" as="targetPoint" />
          </mxGeometry>
        </mxCell>
        <mxCell id="85Ydq0UuJS8T2cN9ZGe2-68" value="MakeMove(Move)" style="edgeLabel;html=1;align=center;verticalAlign=middle;resizable=0;points=[];" parent="85Ydq0UuJS8T2cN9ZGe2-67" connectable="0" vertex="1">
          <mxGeometry x="-0.1973" y="-1" relative="1" as="geometry">
            <mxPoint x="30" y="-1" as="offset" />
          </mxGeometry>
        </mxCell>
        <mxCell id="85Ydq0UuJS8T2cN9ZGe2-69" value="" style="endArrow=classic;html=1;rounded=0;exitX=0;exitY=1;exitDx=0;exitDy=0;dashed=1;" parent="1" edge="1" source="IO_v7ghYdT4e0xg05BSk-2">
          <mxGeometry width="50" height="50" relative="1" as="geometry">
            <mxPoint x="670" y="1295" as="sourcePoint" />
            <mxPoint x="420" y="1295" as="targetPoint" />
          </mxGeometry>
        </mxCell>
        <mxCell id="85Ydq0UuJS8T2cN9ZGe2-70" value="" style="endArrow=none;dashed=1;html=1;rounded=0;" parent="1" source="IO_v7ghYdT4e0xg05BSk-2" target="IO_v7ghYdT4e0xg05BSk-1" edge="1">
          <mxGeometry width="50" height="50" relative="1" as="geometry">
            <mxPoint x="720" y="1270" as="sourcePoint" />
            <mxPoint x="720" y="950" as="targetPoint" />
          </mxGeometry>
        </mxCell>
        <mxCell id="85Ydq0UuJS8T2cN9ZGe2-71" value="" style="rounded=0;whiteSpace=wrap;html=1;" parent="1" vertex="1">
          <mxGeometry x="410" y="1470" width="20" height="280" as="geometry" />
        </mxCell>
        <mxCell id="85Ydq0UuJS8T2cN9ZGe2-72" style="edgeStyle=orthogonalEdgeStyle;rounded=0;orthogonalLoop=1;jettySize=auto;html=1;exitX=1;exitY=0;exitDx=0;exitDy=0;entryX=1;entryY=0;entryDx=0;entryDy=0;" parent="1" target="85Ydq0UuJS8T2cN9ZGe2-71" edge="1">
          <mxGeometry relative="1" as="geometry">
            <mxPoint x="420" y="1470" as="targetPoint" />
            <Array as="points">
              <mxPoint x="450" y="1450" />
              <mxPoint x="450" y="1470" />
            </Array>
            <mxPoint x="420" y="1450" as="sourcePoint" />
          </mxGeometry>
        </mxCell>
        <mxCell id="85Ydq0UuJS8T2cN9ZGe2-73" value="EndTurn()" style="edgeLabel;html=1;align=center;verticalAlign=middle;resizable=0;points=[];" parent="85Ydq0UuJS8T2cN9ZGe2-72" connectable="0" vertex="1">
          <mxGeometry x="-0.596" y="-1" relative="1" as="geometry">
            <mxPoint x="31" y="-4" as="offset" />
          </mxGeometry>
        </mxCell>
        <mxCell id="85Ydq0UuJS8T2cN9ZGe2-74" style="edgeStyle=orthogonalEdgeStyle;rounded=0;orthogonalLoop=1;jettySize=auto;html=1;exitX=1;exitY=1;exitDx=0;exitDy=0;dashed=1;" parent="1" edge="1">
          <mxGeometry relative="1" as="geometry">
            <mxPoint x="430.00000000000006" y="1750" as="sourcePoint" />
            <mxPoint x="420.00000000000006" y="1769.97" as="targetPoint" />
            <Array as="points">
              <mxPoint x="450.00000000000006" y="1750" />
              <mxPoint x="450.00000000000006" y="1770" />
            </Array>
          </mxGeometry>
        </mxCell>
        <mxCell id="85Ydq0UuJS8T2cN9ZGe2-75" value="" style="endArrow=classic;html=1;rounded=0;dashed=1;" parent="1" edge="1" source="85Ydq0UuJS8T2cN9ZGe2-65">
          <mxGeometry width="50" height="50" relative="1" as="geometry">
            <mxPoint x="400" y="1790" as="sourcePoint" />
            <mxPoint x="-200" y="1790" as="targetPoint" />
          </mxGeometry>
        </mxCell>
        <mxCell id="85Ydq0UuJS8T2cN9ZGe2-76" value="" style="edgeStyle=orthogonalEdgeStyle;rounded=0;orthogonalLoop=1;jettySize=auto;html=1;dashed=1;endArrow=none;startFill=0;" parent="1" source="85Ydq0UuJS8T2cN9ZGe2-65" edge="1">
          <mxGeometry relative="1" as="geometry">
            <mxPoint x="410" y="1890" as="targetPoint" />
            <Array as="points">
              <mxPoint x="410" y="1370" />
              <mxPoint x="410" y="1370" />
            </Array>
            <mxPoint x="410" y="1344" as="sourcePoint" />
          </mxGeometry>
        </mxCell>
        <mxCell id="85Ydq0UuJS8T2cN9ZGe2-77" value="" style="edgeStyle=orthogonalEdgeStyle;rounded=0;orthogonalLoop=1;jettySize=auto;html=1;dashed=1;endArrow=none;startFill=0;" parent="1" source="IO_v7ghYdT4e0xg05BSk-2" edge="1">
          <mxGeometry relative="1" as="geometry">
            <mxPoint x="720" y="1890" as="targetPoint" />
            <Array as="points" />
            <mxPoint x="720" y="1120" as="sourcePoint" />
          </mxGeometry>
        </mxCell>
        <mxCell id="85Ydq0UuJS8T2cN9ZGe2-78" value="" style="endArrow=classic;html=1;rounded=0;" parent="1" target="85Ydq0UuJS8T2cN9ZGe2-3" edge="1">
          <mxGeometry width="50" height="50" relative="1" as="geometry">
            <mxPoint x="-200" y="5" as="sourcePoint" />
            <mxPoint x="300" y="130" as="targetPoint" />
          </mxGeometry>
        </mxCell>
        <mxCell id="85Ydq0UuJS8T2cN9ZGe2-79" value="&amp;lt;&amp;lt;create&amp;gt;&amp;gt;(GameData)" style="edgeLabel;html=1;align=center;verticalAlign=middle;resizable=0;points=[];" parent="85Ydq0UuJS8T2cN9ZGe2-78" vertex="1" connectable="0">
          <mxGeometry x="-0.4141" y="3" relative="1" as="geometry">
            <mxPoint x="33" y="3" as="offset" />
          </mxGeometry>
        </mxCell>
        <mxCell id="85Ydq0UuJS8T2cN9ZGe2-80" value="" style="endArrow=classic;html=1;rounded=0;entryX=0;entryY=0.5;entryDx=0;entryDy=0;exitX=1;exitY=0.5;exitDx=0;exitDy=0;" parent="1" source="85Ydq0UuJS8T2cN9ZGe2-3" target="85Ydq0UuJS8T2cN9ZGe2-13" edge="1">
          <mxGeometry width="50" height="50" relative="1" as="geometry">
            <mxPoint x="460" y="4" as="sourcePoint" />
            <mxPoint x="670" y="3.75" as="targetPoint" />
          </mxGeometry>
        </mxCell>
        <mxCell id="85Ydq0UuJS8T2cN9ZGe2-81" value="&amp;lt;&amp;lt;create&amp;gt;&amp;gt;(BoardData)" style="edgeLabel;html=1;align=center;verticalAlign=middle;resizable=0;points=[];" parent="85Ydq0UuJS8T2cN9ZGe2-80" connectable="0" vertex="1">
          <mxGeometry x="-0.487" y="-1" relative="1" as="geometry">
            <mxPoint x="37" y="-1" as="offset" />
          </mxGeometry>
        </mxCell>
        <mxCell id="IO_v7ghYdT4e0xg05BSk-1" value="" style="rounded=0;whiteSpace=wrap;html=1;" vertex="1" parent="1">
          <mxGeometry x="710" y="830" width="20" height="40" as="geometry" />
        </mxCell>
        <mxCell id="IO_v7ghYdT4e0xg05BSk-2" value="" style="rounded=0;whiteSpace=wrap;html=1;" vertex="1" parent="1">
          <mxGeometry x="710" y="1255" width="20" height="40" as="geometry" />
        </mxCell>
        <mxCell id="IO_v7ghYdT4e0xg05BSk-3" value="&lt;span style=&quot;text-align: left;&quot;&gt;GameStateChanged&lt;/span&gt;" style="rounded=0;whiteSpace=wrap;html=1;" vertex="1" parent="1">
          <mxGeometry x="1180" y="-10" width="120" height="30" as="geometry" />
        </mxCell>
        <mxCell id="IO_v7ghYdT4e0xg05BSk-4" value="&lt;span style=&quot;text-align: left;&quot;&gt;DisplayChanged&lt;/span&gt;" style="rounded=0;whiteSpace=wrap;html=1;" vertex="1" parent="1">
          <mxGeometry x="850" y="-10" width="110" height="30" as="geometry" />
        </mxCell>
        <mxCell id="IO_v7ghYdT4e0xg05BSk-5" value="&lt;span style=&quot;text-align: left;&quot;&gt;ActivePlayerChanged&lt;/span&gt;" style="rounded=0;whiteSpace=wrap;html=1;" vertex="1" parent="1">
          <mxGeometry x="1000" y="-10" width="140" height="30" as="geometry" />
        </mxCell>
        <mxCell id="IO_v7ghYdT4e0xg05BSk-6" value="" style="edgeStyle=orthogonalEdgeStyle;rounded=0;orthogonalLoop=1;jettySize=auto;html=1;endArrow=none;startFill=0;dashed=1;" edge="1" parent="1" source="IO_v7ghYdT4e0xg05BSk-33">
          <mxGeometry relative="1" as="geometry">
            <mxPoint x="905" y="440" as="sourcePoint" />
            <mxPoint x="905" y="1890" as="targetPoint" />
            <Array as="points" />
          </mxGeometry>
        </mxCell>
        <mxCell id="IO_v7ghYdT4e0xg05BSk-8" value="" style="edgeStyle=orthogonalEdgeStyle;rounded=0;orthogonalLoop=1;jettySize=auto;html=1;endArrow=none;startFill=0;dashed=1;" edge="1" parent="1" source="IO_v7ghYdT4e0xg05BSk-4" target="IO_v7ghYdT4e0xg05BSk-7">
          <mxGeometry relative="1" as="geometry">
            <mxPoint x="905" y="20" as="sourcePoint" />
            <mxPoint x="905" y="1380" as="targetPoint" />
            <Array as="points" />
          </mxGeometry>
        </mxCell>
        <mxCell id="IO_v7ghYdT4e0xg05BSk-7" value="" style="rounded=0;whiteSpace=wrap;html=1;" vertex="1" parent="1">
          <mxGeometry x="895" y="360" width="20" height="30" as="geometry" />
        </mxCell>
        <mxCell id="IO_v7ghYdT4e0xg05BSk-10" value="" style="endArrow=classic;html=1;rounded=0;exitX=0.979;exitY=0.811;exitDx=0;exitDy=0;exitPerimeter=0;entryX=0;entryY=0;entryDx=0;entryDy=0;" edge="1" parent="1" target="IO_v7ghYdT4e0xg05BSk-7">
          <mxGeometry width="50" height="50" relative="1" as="geometry">
            <mxPoint x="440" y="359" as="sourcePoint" />
            <mxPoint x="895" y="360" as="targetPoint" />
          </mxGeometry>
        </mxCell>
        <mxCell id="IO_v7ghYdT4e0xg05BSk-12" value="Notify(Hint Layer Bit Flag)" style="edgeLabel;html=1;align=center;verticalAlign=middle;resizable=0;points=[];" vertex="1" connectable="0" parent="IO_v7ghYdT4e0xg05BSk-10">
          <mxGeometry x="-0.3331" y="1" relative="1" as="geometry">
            <mxPoint x="-12" as="offset" />
          </mxGeometry>
        </mxCell>
        <mxCell id="IO_v7ghYdT4e0xg05BSk-11" value="" style="endArrow=classic;html=1;rounded=0;exitX=0;exitY=1;exitDx=0;exitDy=0;entryX=0;entryY=0;entryDx=0;entryDy=0;dashed=1;" edge="1" parent="1" source="IO_v7ghYdT4e0xg05BSk-7">
          <mxGeometry width="50" height="50" relative="1" as="geometry">
            <mxPoint x="895" y="390" as="sourcePoint" />
            <mxPoint x="440" y="389" as="targetPoint" />
          </mxGeometry>
        </mxCell>
        <mxCell id="IO_v7ghYdT4e0xg05BSk-14" value="Alt" style="shape=umlFrame;whiteSpace=wrap;html=1;pointerEvents=0;width=50;height=30;" vertex="1" parent="1">
          <mxGeometry x="30" y="610" width="900" height="70" as="geometry" />
        </mxCell>
        <mxCell id="IO_v7ghYdT4e0xg05BSk-15" value="Input Changes the Current (Selected) Piece" style="text;html=1;align=center;verticalAlign=middle;whiteSpace=wrap;rounded=0;" vertex="1" parent="1">
          <mxGeometry x="30" y="640" width="140" height="40" as="geometry" />
        </mxCell>
        <mxCell id="IO_v7ghYdT4e0xg05BSk-21" value="" style="endArrow=classic;html=1;rounded=0;entryX=0;entryY=0;entryDx=0;entryDy=0;" edge="1" target="IO_v7ghYdT4e0xg05BSk-20" parent="1">
          <mxGeometry width="50" height="50" relative="1" as="geometry">
            <mxPoint x="420" y="629" as="sourcePoint" />
            <mxPoint x="895" y="630.5" as="targetPoint" />
          </mxGeometry>
        </mxCell>
        <mxCell id="IO_v7ghYdT4e0xg05BSk-22" value="Notify(Hint Layer Bit Flag)" style="edgeLabel;html=1;align=center;verticalAlign=middle;resizable=0;points=[];" vertex="1" connectable="0" parent="IO_v7ghYdT4e0xg05BSk-21">
          <mxGeometry x="-0.3331" y="1" relative="1" as="geometry">
            <mxPoint x="-12" as="offset" />
          </mxGeometry>
        </mxCell>
        <mxCell id="IO_v7ghYdT4e0xg05BSk-23" value="" style="endArrow=classic;html=1;rounded=0;exitX=0;exitY=1;exitDx=0;exitDy=0;dashed=1;" edge="1" source="IO_v7ghYdT4e0xg05BSk-20" parent="1">
          <mxGeometry width="50" height="50" relative="1" as="geometry">
            <mxPoint x="895" y="660.5" as="sourcePoint" />
            <mxPoint x="420" y="660" as="targetPoint" />
          </mxGeometry>
        </mxCell>
        <mxCell id="IO_v7ghYdT4e0xg05BSk-24" value="" style="edgeStyle=orthogonalEdgeStyle;rounded=0;orthogonalLoop=1;jettySize=auto;html=1;endArrow=none;startFill=0;dashed=1;" edge="1" parent="1" source="IO_v7ghYdT4e0xg05BSk-7" target="IO_v7ghYdT4e0xg05BSk-20">
          <mxGeometry relative="1" as="geometry">
            <mxPoint x="905" y="390" as="sourcePoint" />
            <mxPoint x="905" y="1430" as="targetPoint" />
            <Array as="points" />
          </mxGeometry>
        </mxCell>
        <mxCell id="IO_v7ghYdT4e0xg05BSk-20" value="" style="rounded=0;whiteSpace=wrap;html=1;" vertex="1" parent="1">
          <mxGeometry x="895" y="630" width="20" height="30" as="geometry" />
        </mxCell>
        <mxCell id="IO_v7ghYdT4e0xg05BSk-25" value="" style="endArrow=classic;html=1;rounded=0;entryX=0;entryY=0;entryDx=0;entryDy=0;" edge="1" target="IO_v7ghYdT4e0xg05BSk-28" parent="1">
          <mxGeometry width="50" height="50" relative="1" as="geometry">
            <mxPoint x="420" y="910" as="sourcePoint" />
            <mxPoint x="895" y="911.5" as="targetPoint" />
          </mxGeometry>
        </mxCell>
        <mxCell id="IO_v7ghYdT4e0xg05BSk-26" value="Notify(Piece and Hint Layer Bit Mask)" style="edgeLabel;html=1;align=center;verticalAlign=middle;resizable=0;points=[];" vertex="1" connectable="0" parent="IO_v7ghYdT4e0xg05BSk-25">
          <mxGeometry x="-0.3331" y="1" relative="1" as="geometry">
            <mxPoint x="-12" as="offset" />
          </mxGeometry>
        </mxCell>
        <mxCell id="IO_v7ghYdT4e0xg05BSk-27" value="" style="endArrow=classic;html=1;rounded=0;exitX=0;exitY=1;exitDx=0;exitDy=0;dashed=1;" edge="1" source="IO_v7ghYdT4e0xg05BSk-28" parent="1">
          <mxGeometry width="50" height="50" relative="1" as="geometry">
            <mxPoint x="895" y="941.5" as="sourcePoint" />
            <mxPoint x="420" y="941" as="targetPoint" />
          </mxGeometry>
        </mxCell>
        <mxCell id="IO_v7ghYdT4e0xg05BSk-29" value="" style="edgeStyle=orthogonalEdgeStyle;rounded=0;orthogonalLoop=1;jettySize=auto;html=1;endArrow=none;startFill=0;dashed=1;" edge="1" parent="1" source="IO_v7ghYdT4e0xg05BSk-20" target="IO_v7ghYdT4e0xg05BSk-28">
          <mxGeometry relative="1" as="geometry">
            <mxPoint x="905" y="660" as="sourcePoint" />
            <mxPoint x="905" y="1430" as="targetPoint" />
            <Array as="points" />
          </mxGeometry>
        </mxCell>
        <mxCell id="IO_v7ghYdT4e0xg05BSk-28" value="" style="rounded=0;whiteSpace=wrap;html=1;" vertex="1" parent="1">
          <mxGeometry x="895" y="911" width="20" height="30" as="geometry" />
        </mxCell>
        <mxCell id="IO_v7ghYdT4e0xg05BSk-30" value="" style="endArrow=classic;html=1;rounded=0;entryX=0;entryY=0;entryDx=0;entryDy=0;" edge="1" target="IO_v7ghYdT4e0xg05BSk-33" parent="1">
          <mxGeometry width="50" height="50" relative="1" as="geometry">
            <mxPoint x="420" y="1330" as="sourcePoint" />
            <mxPoint x="895" y="1331.5" as="targetPoint" />
          </mxGeometry>
        </mxCell>
        <mxCell id="IO_v7ghYdT4e0xg05BSk-31" value="Notify(Piece and Hint Layer Bit Mask)" style="edgeLabel;html=1;align=center;verticalAlign=middle;resizable=0;points=[];" vertex="1" connectable="0" parent="IO_v7ghYdT4e0xg05BSk-30">
          <mxGeometry x="-0.3331" y="1" relative="1" as="geometry">
            <mxPoint x="-12" as="offset" />
          </mxGeometry>
        </mxCell>
        <mxCell id="IO_v7ghYdT4e0xg05BSk-32" value="" style="endArrow=classic;html=1;rounded=0;exitX=0;exitY=1;exitDx=0;exitDy=0;dashed=1;" edge="1" source="IO_v7ghYdT4e0xg05BSk-33" parent="1">
          <mxGeometry width="50" height="50" relative="1" as="geometry">
            <mxPoint x="895" y="1361.5" as="sourcePoint" />
            <mxPoint x="420" y="1361" as="targetPoint" />
          </mxGeometry>
        </mxCell>
        <mxCell id="IO_v7ghYdT4e0xg05BSk-34" value="" style="edgeStyle=orthogonalEdgeStyle;rounded=0;orthogonalLoop=1;jettySize=auto;html=1;endArrow=none;startFill=0;dashed=1;" edge="1" parent="1" source="IO_v7ghYdT4e0xg05BSk-28" target="IO_v7ghYdT4e0xg05BSk-33">
          <mxGeometry relative="1" as="geometry">
            <mxPoint x="905" y="941" as="sourcePoint" />
            <mxPoint x="905" y="1430" as="targetPoint" />
            <Array as="points" />
          </mxGeometry>
        </mxCell>
        <mxCell id="IO_v7ghYdT4e0xg05BSk-33" value="" style="rounded=0;whiteSpace=wrap;html=1;" vertex="1" parent="1">
          <mxGeometry x="895" y="1331" width="20" height="30" as="geometry" />
        </mxCell>
        <mxCell id="IO_v7ghYdT4e0xg05BSk-42" value="" style="endArrow=none;dashed=1;html=1;rounded=0;" edge="1" parent="1" source="IO_v7ghYdT4e0xg05BSk-61" target="IO_v7ghYdT4e0xg05BSk-5">
          <mxGeometry width="50" height="50" relative="1" as="geometry">
            <mxPoint x="1070" y="1890" as="sourcePoint" />
            <mxPoint x="800" y="290" as="targetPoint" />
          </mxGeometry>
        </mxCell>
        <mxCell id="IO_v7ghYdT4e0xg05BSk-43" value="" style="endArrow=none;dashed=1;html=1;rounded=0;" edge="1" parent="1" source="IO_v7ghYdT4e0xg05BSk-56" target="IO_v7ghYdT4e0xg05BSk-3">
          <mxGeometry width="50" height="50" relative="1" as="geometry">
            <mxPoint x="1240" y="1890" as="sourcePoint" />
            <mxPoint x="1239.09" y="20" as="targetPoint" />
          </mxGeometry>
        </mxCell>
        <mxCell id="IO_v7ghYdT4e0xg05BSk-44" value="Winner != ONGOING" style="text;html=1;align=center;verticalAlign=middle;whiteSpace=wrap;rounded=0;" vertex="1" parent="1">
          <mxGeometry x="28.75" y="1640" width="130" height="30" as="geometry" />
        </mxCell>
        <mxCell id="IO_v7ghYdT4e0xg05BSk-45" value="" style="rounded=0;whiteSpace=wrap;html=1;" vertex="1" parent="1">
          <mxGeometry x="420" y="1510" width="20" height="200" as="geometry" />
        </mxCell>
        <mxCell id="IO_v7ghYdT4e0xg05BSk-46" style="edgeStyle=orthogonalEdgeStyle;rounded=0;orthogonalLoop=1;jettySize=auto;html=1;exitX=1;exitY=1;exitDx=0;exitDy=0;dashed=1;" edge="1" parent="1">
          <mxGeometry relative="1" as="geometry">
            <mxPoint x="440.00000000000006" y="1710" as="sourcePoint" />
            <mxPoint x="430.00000000000006" y="1729.97" as="targetPoint" />
            <Array as="points">
              <mxPoint x="460.00000000000006" y="1710" />
              <mxPoint x="460.00000000000006" y="1730" />
            </Array>
          </mxGeometry>
        </mxCell>
        <mxCell id="IO_v7ghYdT4e0xg05BSk-47" style="edgeStyle=orthogonalEdgeStyle;rounded=0;orthogonalLoop=1;jettySize=auto;html=1;exitX=1;exitY=0;exitDx=0;exitDy=0;entryX=1;entryY=0;entryDx=0;entryDy=0;" edge="1" parent="1">
          <mxGeometry relative="1" as="geometry">
            <mxPoint x="440" y="1510" as="targetPoint" />
            <Array as="points">
              <mxPoint x="460" y="1490" />
              <mxPoint x="460" y="1510" />
            </Array>
            <mxPoint x="430" y="1490" as="sourcePoint" />
          </mxGeometry>
        </mxCell>
        <mxCell id="IO_v7ghYdT4e0xg05BSk-48" value="UpdateGameState()" style="edgeLabel;html=1;align=center;verticalAlign=middle;resizable=0;points=[];" connectable="0" vertex="1" parent="IO_v7ghYdT4e0xg05BSk-47">
          <mxGeometry x="-0.596" y="-1" relative="1" as="geometry">
            <mxPoint x="51" y="-4" as="offset" />
          </mxGeometry>
        </mxCell>
        <mxCell id="IO_v7ghYdT4e0xg05BSk-41" value="Alt" style="shape=umlFrame;whiteSpace=wrap;html=1;pointerEvents=0;width=50;height=30;" vertex="1" parent="1">
          <mxGeometry x="28.75" y="1610" width="1271.25" height="80" as="geometry" />
        </mxCell>
        <mxCell id="IO_v7ghYdT4e0xg05BSk-53" value="" style="endArrow=classic;html=1;rounded=0;entryX=0;entryY=0;entryDx=0;entryDy=0;" edge="1" target="IO_v7ghYdT4e0xg05BSk-56" parent="1">
          <mxGeometry width="50" height="50" relative="1" as="geometry">
            <mxPoint x="440" y="1640" as="sourcePoint" />
            <mxPoint x="915" y="1641.5" as="targetPoint" />
          </mxGeometry>
        </mxCell>
        <mxCell id="IO_v7ghYdT4e0xg05BSk-54" value="Notify(GameState)" style="edgeLabel;html=1;align=center;verticalAlign=middle;resizable=0;points=[];" vertex="1" connectable="0" parent="IO_v7ghYdT4e0xg05BSk-53">
          <mxGeometry x="-0.3331" y="1" relative="1" as="geometry">
            <mxPoint x="-114" y="1" as="offset" />
          </mxGeometry>
        </mxCell>
        <mxCell id="IO_v7ghYdT4e0xg05BSk-55" value="" style="endArrow=classic;html=1;rounded=0;exitX=0;exitY=1;exitDx=0;exitDy=0;dashed=1;" edge="1" source="IO_v7ghYdT4e0xg05BSk-56" parent="1">
          <mxGeometry width="50" height="50" relative="1" as="geometry">
            <mxPoint x="915" y="1671.5" as="sourcePoint" />
            <mxPoint x="440" y="1671" as="targetPoint" />
          </mxGeometry>
        </mxCell>
        <mxCell id="IO_v7ghYdT4e0xg05BSk-57" value="" style="endArrow=none;dashed=1;html=1;rounded=0;" edge="1" parent="1" target="IO_v7ghYdT4e0xg05BSk-56">
          <mxGeometry width="50" height="50" relative="1" as="geometry">
            <mxPoint x="1240" y="1890" as="sourcePoint" />
            <mxPoint x="1240" y="20" as="targetPoint" />
          </mxGeometry>
        </mxCell>
        <mxCell id="IO_v7ghYdT4e0xg05BSk-56" value="" style="rounded=0;whiteSpace=wrap;html=1;" vertex="1" parent="1">
          <mxGeometry x="1230" y="1640" width="20" height="30" as="geometry" />
        </mxCell>
        <mxCell id="IO_v7ghYdT4e0xg05BSk-58" value="" style="endArrow=classic;html=1;rounded=0;entryX=0;entryY=0;entryDx=0;entryDy=0;" edge="1" target="IO_v7ghYdT4e0xg05BSk-61" parent="1">
          <mxGeometry width="50" height="50" relative="1" as="geometry">
            <mxPoint x="440" y="1540" as="sourcePoint" />
            <mxPoint x="700" y="1540" as="targetPoint" />
          </mxGeometry>
        </mxCell>
        <mxCell id="IO_v7ghYdT4e0xg05BSk-59" value="Notify(either 0 or 1)" style="edgeLabel;html=1;align=center;verticalAlign=middle;resizable=0;points=[];" connectable="0" vertex="1" parent="IO_v7ghYdT4e0xg05BSk-58">
          <mxGeometry x="-0.1973" y="-1" relative="1" as="geometry">
            <mxPoint x="-109" y="-1" as="offset" />
          </mxGeometry>
        </mxCell>
        <mxCell id="IO_v7ghYdT4e0xg05BSk-60" value="" style="endArrow=classic;html=1;rounded=0;exitX=0;exitY=1;exitDx=0;exitDy=0;dashed=1;" edge="1" source="IO_v7ghYdT4e0xg05BSk-61" parent="1">
          <mxGeometry width="50" height="50" relative="1" as="geometry">
            <mxPoint x="700" y="1580" as="sourcePoint" />
            <mxPoint x="440" y="1580" as="targetPoint" />
          </mxGeometry>
        </mxCell>
        <mxCell id="IO_v7ghYdT4e0xg05BSk-63" value="" style="endArrow=none;dashed=1;html=1;rounded=0;" edge="1" parent="1" target="IO_v7ghYdT4e0xg05BSk-61">
          <mxGeometry width="50" height="50" relative="1" as="geometry">
            <mxPoint x="1070" y="1890" as="sourcePoint" />
            <mxPoint x="1070" y="20" as="targetPoint" />
          </mxGeometry>
        </mxCell>
        <mxCell id="IO_v7ghYdT4e0xg05BSk-61" value="" style="rounded=0;whiteSpace=wrap;html=1;" vertex="1" parent="1">
          <mxGeometry x="1060" y="1540" width="20" height="40" as="geometry" />
        </mxCell>
        <mxCell id="IO_v7ghYdT4e0xg05BSk-64" value="This is a conceptual loop.&lt;div&gt;&lt;br&gt;&lt;div&gt;It may be implemented as part of the update loop for the running program using the CheckersController.&lt;/div&gt;&lt;/div&gt;" style="text;html=1;align=center;verticalAlign=middle;whiteSpace=wrap;rounded=0;" vertex="1" parent="1">
          <mxGeometry x="-580" y="-20" width="330" height="70" as="geometry" />
        </mxCell>
      </root>
    </mxGraphModel>
  </diagram>
</mxfile>
